<svg width="48" height="48" viewBox="0 0 48 48" fill="none" xmlns="http://www.w3.org/2000/svg">
<path d="M9.756 19.624C10.636 19.624 11.408 19.796 12.072 20.14C12.744 20.484 13.26 20.976 13.62 21.616C13.988 22.248 14.172 22.984 14.172 23.824C14.172 24.664 13.988 25.4 13.62 26.032C13.26 26.656 12.744 27.14 12.072 27.484C11.408 27.828 10.636 28 9.756 28H6.828V19.624H9.756ZM9.696 26.572C10.576 26.572 11.256 26.332 11.736 25.852C12.216 25.372 12.456 24.696 12.456 23.824C12.456 22.952 12.216 22.272 11.736 21.784C11.256 21.288 10.576 21.04 9.696 21.04H8.508V26.572H9.696Z" fill="#0043EF"/>
<path d="M17.1096 20.98V23.08H22.5V24.412H17.1096V26.632H27.2104L25 28H15.4296V19.612H25V20.98H17.1096Z" fill="#0043EF"/>
<path d="M25.7043 28.084C24.9203 28.084 24.2003 27.9 23.5443 27.532C22.8883 27.164 22.3683 26.656 21.9843 26.008C21.6003 25.352 21.4083 24.612 21.4083 23.788C21.4083 22.972 21.6003 22.24 21.9843 21.592C22.3683 20.936 22.8883 20.424 23.5443 20.056C24.2003 19.688 24.9203 19.504 25.7043 19.504C26.4963 19.504 27.2163 19.688 27.8643 20.056C28.5203 20.424 29.0363 20.936 29.4123 21.592C29.7963 22.24 29.9883 22.972 29.9883 23.788C29.9883 24.612 29.7963 25.352 29.4123 26.008C29.0363 26.656 28.5203 27.164 27.8643 27.532C27.2083 27.9 26.4883 28.084 25.7043 28.084ZM25.7043 26.584C26.2083 26.584 26.6523 26.472 27.0363 26.248C27.4203 26.016 27.7203 25.688 27.9363 25.264C28.1523 24.84 28.2603 24.348 28.2603 23.788C28.2603 23.228 28.1523 22.74 27.9363 22.324C27.7203 21.9 27.4203 21.576 27.0363 21.352C26.6523 21.128 26.2083 21.016 25.7043 21.016C25.2003 21.016 24.7523 21.128 24.3603 21.352C23.9763 21.576 23.6763 21.9 23.4603 22.324C23.2443 22.74 23.1363 23.228 23.1363 23.788C23.1363 24.348 23.2443 24.84 23.4603 25.264C23.6763 25.688 23.9763 26.016 24.3603 26.248C24.7523 26.472 25.2003 26.584 25.7043 26.584Z" fill="#0043EF"/>
<path d="M36.1222 19.624V25.504C36.1222 26.32 35.8862 26.956 35.4142 27.412C34.9422 27.86 34.3102 28.084 33.5182 28.084C32.7182 28.084 32.0702 27.852 31.5742 27.388C31.0862 26.924 30.8422 26.276 30.8422 25.444H32.5222C32.5302 25.804 32.6142 26.084 32.7742 26.284C32.9422 26.484 33.1822 26.584 33.4942 26.584C33.7982 26.584 34.0302 26.488 34.1902 26.296C34.3502 26.104 34.4302 25.84 34.4302 25.504V19.624H36.1222Z" fill="#0043EF"/>
<path d="M39.7619 19.624V28H38.0819V19.624H39.7619Z" fill="#0043EF"/>
</svg>
